<svg width="40" height="40" viewBox="0 0 40 40" fill="none" xmlns="http://www.w3.org/2000/svg">
<path d="M34.1422 5.85789C30.3647 2.08039 25.3422 0 20 0C14.6578 0 9.63531 2.08039 5.85781 5.85789C2.08031 9.63539 0 14.6578 0 20C0 25.3422 2.08031 30.3647 5.85781 34.1421C9.63531 37.9195 14.6578 40 20 40C25.3422 40 30.3647 37.9196 34.1422 34.1421C37.9197 30.3646 40 25.3422 40 20C40 14.6578 37.9197 9.63531 34.1422 5.85789ZM20 36.0744C11.1365 36.0744 3.92563 28.8634 3.92563 20C3.92563 19.9855 3.92609 19.9711 3.92617 19.9567C3.92617 19.953 3.92563 19.9495 3.92563 19.9459C3.92563 19.9397 3.92641 19.9338 3.92656 19.9277C3.96555 11.1704 11.0427 4.04563 19.7816 3.92844C19.7998 3.92758 19.818 3.9257 19.8365 3.9257C19.8476 3.9257 19.8584 3.92703 19.8694 3.92734C19.913 3.92703 19.9564 3.9257 20.0001 3.9257C28.8636 3.9257 36.0745 11.1366 36.0745 20.0001C36.0745 28.8635 28.8635 36.0744 20 36.0744Z" fill="black"/>
<path d="M32.2099 20.9656C31.5563 20.9656 31.0265 20.4357 31.0265 19.7821C31.0265 19.1285 31.5563 18.5987 32.2099 18.5987H33.6364C32.9664 12.0302 27.6394 6.81954 21.0198 6.33032V7.57212C21.0198 8.22571 20.49 8.75556 19.8364 8.75556C19.1828 8.75556 18.653 8.22571 18.653 7.57212V6.3586C12.1314 6.99767 6.93664 12.2259 6.34891 18.7622H7.62641C8.28 18.7622 8.80984 19.292 8.80984 19.9456C8.80984 20.5992 8.28 21.1291 7.62641 21.1291H6.33922C6.88336 27.7706 12.1823 33.0857 18.8166 33.6558V32.1556C18.8166 31.502 19.3464 30.9721 20 30.9721C20.6536 30.9721 21.1834 31.502 21.1834 32.1556V33.6558C27.872 33.081 33.2032 27.6831 33.673 20.9656H32.2099ZM24.7906 16.8829L20.8369 20.8367C20.6149 21.0587 20.314 21.1834 20.0001 21.1834C19.6863 21.1834 19.3852 21.0587 19.1633 20.8367L12.281 13.9545C11.8188 13.4924 11.8188 12.7431 12.281 12.2809C12.7431 11.8187 13.4924 11.8187 13.9546 12.2809L20.0002 18.3263L23.1172 15.2093C23.5793 14.7471 24.3286 14.7471 24.7908 15.2093C25.2528 15.6714 25.2528 16.4208 24.7906 16.8829Z" fill="black"/>
</svg>
