<svg width="40" height="40" viewBox="0 0 40 40" fill="none" xmlns="http://www.w3.org/2000/svg">
<path d="M36.4844 4.76562H3.51563C2.97446 4.76562 2.46782 4.89867 2.00946 5.11797L19.9219 23.0304L23.9366 19.172C23.9366 19.172 23.937 19.1716 23.937 19.1715C23.9371 19.1713 23.9374 19.1712 23.9374 19.1712L37.9911 5.11828C37.5327 4.89883 37.0257 4.76562 36.4844 4.76562Z" fill="black"/>
<path d="M39.6481 6.77563L26.4229 20.0002L39.6476 33.2249C39.8669 32.7666 40 32.2599 40 31.7188V8.28126C40 7.7404 39.8673 7.23384 39.6481 6.77563Z" fill="black"/>
<path d="M0.352344 6.77515C0.133047 7.23351 0 7.74015 0 8.28132V31.7188C0 32.2597 0.132891 32.7664 0.352031 33.2246L13.5773 20.0001L0.352344 6.77515Z" fill="black"/>
<path d="M24.7658 21.6574L20.7505 25.5162C20.5216 25.7451 20.2217 25.8596 19.922 25.8596C19.6222 25.8596 19.3223 25.7451 19.0934 25.5162L15.2344 21.6572L2.00891 34.8818C2.46735 35.1013 2.9743 35.2345 3.51563 35.2345H36.4844C37.0256 35.2345 37.5322 35.1014 37.9906 34.8821L24.7658 21.6574Z" fill="black"/>
</svg>
