<svg width="40" height="40" viewBox="0 0 40 40" fill="none" xmlns="http://www.w3.org/2000/svg">
<g clip-path="url(#clip0)">
<path d="M39.168 39.2639C40.0231 38.5443 40.2516 37.3083 39.7014 36.3347L34.4101 26.9206C33.9107 26.0317 32.5476 25.4391 31.0068 25.4221C29.102 28.0889 26.4268 31.1028 22.6764 34.2182C21.9314 34.8362 20.9832 35.1833 20.0096 35.1833C19.036 35.1833 18.0878 34.8447 17.3428 34.2182C13.5924 31.1028 10.9172 28.0889 9.01235 25.4221C7.47156 25.4391 6.10007 26.0317 5.60905 26.9206L0.300913 36.3347C-0.249372 37.3083 -0.029258 38.5443 0.834267 39.2639C1.25756 39.6195 1.79092 39.8142 2.3412 39.8142H10.4177H29.593H37.6695C38.2113 39.8142 38.7447 39.6195 39.168 39.2639Z" fill="#C08C4D"/>
<path d="M20.0011 8.22778C17.3343 8.22778 15.1671 10.3951 15.1671 13.0618C15.1671 13.6968 15.6835 14.2217 16.3269 14.2217C16.9618 14.2217 17.4867 13.7052 17.4867 13.0618C17.4867 11.6734 18.6212 10.539 20.0096 10.539C20.6445 10.539 21.1694 10.0226 21.1694 9.37915C21.1609 8.7442 20.636 8.22778 20.0011 8.22778Z" fill="#C08C4D"/>
<path d="M32.7339 12.9179C32.7339 5.73031 26.7823 -0.0603839 19.5439 0.193594C13.203 0.413708 7.92869 5.36628 7.32761 11.6819C7.20908 12.9433 7.27681 14.1708 7.49693 15.3391C7.49693 15.3391 7.52232 15.4746 7.58158 15.737C7.7763 16.6175 8.07261 17.4641 8.43664 18.2599C9.715 21.2907 12.6696 26.3533 19.29 31.8562C19.6963 32.1948 20.2974 32.1948 20.7038 31.8562C27.3241 26.3533 30.2787 21.2992 31.5571 18.2599C31.9296 17.4556 32.2174 16.6175 32.4122 15.737C32.4714 15.4746 32.4968 15.3391 32.4968 15.3391C32.6577 14.5518 32.7339 13.7391 32.7339 12.9179ZM20.0011 20.8081C15.7258 20.8081 12.2548 17.3371 12.2548 13.0618C12.2548 8.78651 15.7258 5.31548 20.0011 5.31548C24.2764 5.31548 27.7474 8.78651 27.7474 13.0618C27.7474 17.3371 24.2764 20.8081 20.0011 20.8081Z" fill="#C08C4D"/>
</g>
<defs>
<clipPath id="clip0">
<rect width="40" height="40" fill="white"/>
</clipPath>
</defs>
</svg>
